<svg width="66" height="90" viewBox="0 0 66 90" fill="none" xmlns="http://www.w3.org/2000/svg">
<g id="Group 3">
<rect id="Rectangle" x="15" y="74" width="36" height="12" rx="2" fill="#42D4BD"/>
<path id="Combined Shape" fill-rule="evenodd" clip-rule="evenodd" d="M6.72489 59.9901C6.39244 59.4142 6.77958 58.6848 7.44201 58.6275C9.51035 58.4486 13.2068 58.0407 14.4295 57.3348L31.75 47.3348L49.0705 37.3348C50.2932 36.6289 52.4947 33.6316 53.6837 31.9298C54.0645 31.3848 54.8899 31.4142 55.2223 31.9901C55.3917 32.2835 55.3826 32.6445 55.192 32.9247C54.2704 34.2799 51.5008 38.2411 50.0705 39.0669L15.4295 59.0669C13.9992 59.8926 9.18392 60.3106 7.54941 60.4311C7.21155 60.4561 6.89429 60.2835 6.72489 59.9901ZM22.3756 59.0979C23.066 60.2937 22.6563 61.8227 21.4606 62.513C20.2648 63.2034 18.7359 62.7937 18.0455 61.5979C17.3552 60.4022 17.7648 58.8732 18.9606 58.1829C20.1563 57.4925 21.6853 57.9022 22.3756 59.0979ZM50.9054 45.513C52.1012 44.8227 52.5109 43.2937 51.8205 42.0979C51.1302 40.9022 49.6012 40.4925 48.4054 41.1829C47.2097 41.8732 46.8 43.4022 47.4904 44.5979C48.1807 45.7937 49.7097 46.2034 50.9054 45.513Z" fill="#42D4BD"/>
</g>
</svg>
