<svg width="66" height="90" viewBox="0 0 66 90" fill="none" xmlns="http://www.w3.org/2000/svg">
<g id="Group 5">
<rect id="Rectangle Copy 7" x="15" y="74" width="36" height="12" rx="2" fill="#42D4BD"/>
<rect id="Rectangle Copy 9" x="15" y="58" width="36" height="12" rx="2" fill="#42D4BD"/>
<rect id="Rectangle Copy 9_2" x="15" y="42" width="36" height="12" rx="2" fill="#42D4BD"/>
<path id="Combined Shape" fill-rule="evenodd" clip-rule="evenodd" d="M4.72163 26.3711C4.60617 25.7163 5.21946 25.1632 5.86153 25.336C7.8663 25.8753 11.4793 26.7563 12.8697 26.5111L32.5659 23.0382L52.262 19.5652C53.6524 19.32 56.7463 17.2565 58.4457 16.064C58.9899 15.6821 59.7554 15.992 59.8709 16.6468C59.9297 16.9805 59.7976 17.3166 59.5228 17.5147C58.1932 18.473 54.2358 21.248 52.6093 21.5348L13.217 28.4807C11.5906 28.7675 6.92273 27.5133 5.34556 27.0676C5.01955 26.9755 4.78046 26.7048 4.72163 26.3711ZM19.7336 30.8857C19.9734 32.2454 19.0655 33.5421 17.7057 33.7818C16.346 34.0216 15.0494 33.1137 14.8096 31.7539C14.5698 30.3942 15.4778 29.0975 16.8375 28.8578C18.1972 28.618 19.4939 29.526 19.7336 30.8857ZM51.1892 27.8778C52.5489 27.638 53.4569 26.3414 53.2171 24.9816C52.9773 23.6219 51.6807 22.714 50.321 22.9538C48.9612 23.1935 48.0533 24.4902 48.2931 25.8499C48.5328 27.2096 49.8295 28.1175 51.1892 27.8778Z" fill="#42D4BD"/>
</g>
</svg>
