<svg width="66" height="90" viewBox="0 0 66 90" fill="none" xmlns="http://www.w3.org/2000/svg">
<g id="Group 4">
<rect id="Rectangle Copy 6" x="15" y="74" width="36" height="12" rx="2" fill="#FFFFFF"/>
<rect id="Rectangle Copy 6_2" x="15" y="58" width="36" height="12" rx="2" fill="#FFFFFF"/>
<path id="Combined Shape" fill-rule="evenodd" clip-rule="evenodd" d="M5.30247 43.2684C5.07506 42.6436 5.58299 41.9924 6.2453 42.051C8.31327 42.2341 12.0244 42.4743 13.3511 41.9914L32.1449 35.151L50.9388 28.3106C52.2655 27.8277 54.954 25.2582 56.4205 23.7888C56.8902 23.3181 57.6978 23.4905 57.9253 24.1153C58.0411 24.4336 57.9694 24.7876 57.7332 25.0304C56.5902 26.205 53.1748 29.6251 51.6228 30.19L14.0351 43.8708C12.4832 44.4356 7.66848 44.0111 6.03787 43.846C5.70081 43.8118 5.41834 43.5868 5.30247 43.2684ZM20.8704 45.1076C21.3426 46.405 20.6736 47.8396 19.3762 48.3119C18.0787 48.7841 16.6441 48.1151 16.1719 46.8177C15.6997 45.5202 16.3686 44.0856 17.6661 43.6134C18.9635 43.1412 20.3981 43.8101 20.8704 45.1076ZM51.3257 36.6832C52.6232 36.2109 53.2921 34.7763 52.8199 33.4789C52.3477 32.1814 50.9131 31.5125 49.6156 31.9847C48.3182 32.4569 47.6492 33.8915 48.1214 35.189C48.5937 36.4864 50.0283 37.1554 51.3257 36.6832Z" fill="#FFFFFF"/>
</g>
</svg>
