<svg width="28" height="28" viewBox="0 0 28 28" fill="none" xmlns="http://www.w3.org/2000/svg">
<g opacity="0.8">
<path fill-rule="evenodd" clip-rule="evenodd" d="M1.73263 21.1605C1.30888 20.6555 1.64267 19.8654 2.29561 19.7745C3.286 19.6366 4.46152 19.3928 4.95178 18.9815L12.7144 12.4679L20.477 5.9543C20.9672 5.54292 21.4114 4.42759 21.7192 3.47619C21.9221 2.84897 22.7581 2.65744 23.1819 3.16244C23.3437 3.35533 23.4056 3.61233 23.3416 3.85584C23.1089 4.74016 22.4859 6.87944 21.7625 7.48639L6.23736 20.5136C5.51403 21.1205 3.29906 21.3626 2.38777 21.4382C2.13682 21.459 1.89449 21.3534 1.73263 21.1605ZM10.8258 21.8851C11.4604 21.3526 11.5431 20.4064 11.0106 19.7718C10.4781 19.1372 9.53201 19.0544 8.8974 19.5869C8.26279 20.1194 8.18001 21.0656 8.71251 21.7002C9.24501 22.3348 10.1911 22.4176 10.8258 21.8851ZM22.5013 10.13C23.0338 10.7646 22.951 11.7107 22.3164 12.2432C21.6818 12.7757 20.7357 12.693 20.2032 12.0584C19.6707 11.4237 19.7535 10.4776 20.3881 9.94511C21.0227 9.41261 21.9688 9.49538 22.5013 10.13Z" fill="white"/>
</g>
</svg>
