<svg width="28" height="28" viewBox="0 0 28 28" fill="none" xmlns="http://www.w3.org/2000/svg">
<path fill-rule="evenodd" clip-rule="evenodd" d="M1.73269 21.1605C1.30894 20.6555 1.64274 19.8654 2.29567 19.7745C3.28606 19.6366 4.46158 19.3928 4.95185 18.9815L12.7144 12.4679L20.477 5.9543C20.9673 5.54292 21.4115 4.42759 21.7193 3.47619C21.9222 2.84897 22.7582 2.65744 23.1819 3.16244C23.3438 3.35533 23.4057 3.61233 23.3416 3.85584C23.1089 4.74016 22.4859 6.87944 21.7626 7.48639L6.23742 20.5136C5.51409 21.1205 3.29912 21.3626 2.38783 21.4382C2.13688 21.459 1.89455 21.3534 1.73269 21.1605ZM10.8258 21.8851C11.4604 21.3526 11.5432 20.4064 11.0107 19.7718C10.4782 19.1372 9.53207 19.0544 8.89746 19.5869C8.26285 20.1194 8.18007 21.0656 8.71257 21.7002C9.24508 22.3348 10.1912 22.4176 10.8258 21.8851ZM22.5014 10.13C23.0339 10.7646 22.9511 11.7107 22.3165 12.2432C21.6819 12.7757 20.7357 12.693 20.2032 12.0584C19.6707 11.4237 19.7535 10.4776 20.3881 9.94511C21.0227 9.41261 21.9689 9.49538 22.5014 10.13Z" fill="#42D4BD"/>
</svg>
