<svg width="28" height="28" viewBox="0 0 28 28" fill="none" xmlns="http://www.w3.org/2000/svg">
<path fill-rule="evenodd" clip-rule="evenodd" d="M17.1617 16.3333H18.0833L23.905 22.1667L22.1667 23.905L16.3333 18.0833V17.1617L16.0183 16.835C14.6883 17.9783 12.9617 18.6667 11.0833 18.6667C6.895 18.6667 3.5 15.2717 3.5 11.0833C3.5 6.895 6.895 3.5 11.0833 3.5C15.2717 3.5 18.6667 6.895 18.6667 11.0833C18.6667 12.9617 17.9783 14.6883 16.835 16.0183L17.1617 16.3333ZM5.83333 11.0833C5.83333 13.9883 8.17833 16.3333 11.0833 16.3333C13.9883 16.3333 16.3333 13.9883 16.3333 11.0833C16.3333 8.17833 13.9883 5.83333 11.0833 5.83333C8.17833 5.83333 5.83333 8.17833 5.83333 11.0833Z" fill="#42D4BD"/>
</svg>
