<svg width="28" height="28" viewBox="0 0 28 28" fill="none" xmlns="http://www.w3.org/2000/svg">
<path fill-rule="evenodd" clip-rule="evenodd" d="M20.73 0.535L20.9167 0.5C21.2433 0.5 21.5 0.756667 21.5 1.08333V18.7233C21.5 18.9917 21.325 19.2017 21.08 19.2833L14.5 21.5L7.5 19.05L1.27 21.465L1.08333 21.5C0.756667 21.5 0.5 21.2433 0.5 20.9167V3.27667C0.5 3.00833 0.675 2.79833 0.92 2.71667L7.5 0.5L14.5 2.95L20.73 0.535ZM13.3333 5.015L8.66667 3.38167V16.985L13.3333 18.6183V5.015ZM2.83333 4.53667L6.33333 3.35833V17.0083L2.83333 18.3617V4.53667ZM15.6667 18.6417L19.1667 17.4633V3.65L15.6667 5.00333V18.6417Z" fill="#42D4BD"/>
</svg>
