<svg height="480pt" viewBox="0 -24 480.00005 480" fill="white" width="480pt" xmlns="http://www.w3.org/2000/svg"><path d="m192.644531 48.757812 5.105469-11.90625 14.703125 6.308594-5.101563 11.902344zm0 0"/><path d="m173.75 92.84375 13.714844-32 14.707031 6.300781-13.714844 32.003907zm0 0"/><path d="m454.398438 83.199219c-1.507813-2.011719-3.878907-3.199219-6.398438-3.199219h-72c-4.417969 0-8 3.582031-8 8v24h-18.726562l-45.921876-107.152344c-1.261718-2.941406-4.152343-4.847656-7.351562-4.847656h-112c-3.199219 0-6.089844 1.90625-7.351562 4.847656l-45.921876 107.152344h-18.726562v-24c0-4.417969-3.582031-8-8-8h-32c-4.417969 0-8 3.582031-8 8v10.304688l-16.222656-36.496094c-1.148438-12.761719-12.140625-22.359375-24.9375-21.769532-12.800782.585938-22.8671878 11.148438-22.839844 23.960938v144c0 13.253906 10.746094 24 24 24s24-10.746094 24-24v-6.113281l16-32v138.824219c-28.113281 11.324218-44.429688 40.816406-39.082031 70.652343 5.34375 29.832031 30.882812 51.828125 61.179687 52.6875s57.039063-19.648437 64.070313-49.128906l181.601562-36.3125c-11.738281 32.972656 5.195313 69.261719 38.003907 81.449219 32.8125 12.191406 69.328124-4.238282 81.96875-36.875 12.644531-32.640625-3.28125-69.378906-35.742188-82.472656v-20.710938h24c4.417969 0 8-3.582031 8-8v-24h24c4.417969 0 8-3.582031 8-8v-128c0-1.730469-.5625-3.414062-1.601562-4.800781zm-310.398438 76.800781h192v24c-.035156 30.914062-25.085938 55.964844-56 56h-80c-30.914062-.035156-55.964844-25.085938-56-56zm192-16h-192v-16h192zm-136 112h80c39.746094-.046875 71.953125-32.253906 72-72v-24h16v112h-256v-112h16v24c.046875 39.746094 32.253906 71.953125 72 72zm-88 32h256v16h-256zm256-144h-16v-16h16zm-178.726562-128h101.453124l41.144532 96h-183.742188zm-61.273438 112v16h-16v-16zm-80-26.304688 11.6875 26.304688h-11.6875zm-16 106.304688c0 4.417969-3.582031 8-8 8s-8-3.582031-8-8v-144c0-4.417969 3.582031-8 8-8s8 3.582031 8 8zm16-64h11.054688l-11.054688 22.113281zm32-48h16v208.550781c-5.308594-.734375-10.691406-.734375-16 0zm8 320c-26.507812 0-48-21.492188-48-48s21.492188-48 48-48 48 21.492188 48 48c-.027344 26.5-21.5 47.972656-48 48zm63.910156-49.742188c-.472656-17.773437-8.347656-34.539062-21.71875-46.257812h219.617188c-2.867188 2.515625-5.503906 5.277344-7.878906 8.257812zm288.089844 1.742188c0 26.507812-21.492188 48-48 48s-48-21.492188-48-48 21.492188-48 48-48c26.5.027344 47.972656 21.5 48 48zm-48-64c-2.675781.019531-5.347656.203125-8 .550781v-208.550781h16v208.550781c-2.652344-.347656-5.324219-.53125-8-.550781zm40-32h-16v-16h16zm32-32h-48v-144h28l20 26.664062zm0 0"/><path d="m88 344c-13.253906 0-24 10.746094-24 24s10.746094 24 24 24 24-10.746094 24-24-10.746094-24-24-24zm0 32c-4.417969 0-8-3.582031-8-8s3.582031-8 8-8 8 3.582031 8 8-3.582031 8-8 8zm0 0"/><path d="m368 368c0 13.253906 10.746094 24 24 24s24-10.746094 24-24-10.746094-24-24-24-24 10.746094-24 24zm32 0c0 4.417969-3.582031 8-8 8s-8-3.582031-8-8 3.582031-8 8-8 8 3.582031 8 8zm0 0"/><path d="m432 128h16v16h-16zm0 0"/><path d="m432 160h16v16h-16zm0 0"/></svg>