<svg width="28" height="28" viewBox="0 0 28 28" fill="none" xmlns="http://www.w3.org/2000/svg">
<g id="wb_incandescent-24px copy 3">
<path id="Shape" fill-rule="evenodd" clip-rule="evenodd" d="M10.5 2.39172H17.5V8.00339C19.5884 9.21672 21 11.4684 21 14.0584C21 17.9201 17.8617 21.0584 14 21.0584C10.1384 21.0584 7.00002 17.9201 7.00002 14.0584C7.00002 11.4684 8.41169 9.21672 10.5 8.00339V2.39172ZM15.1667 4.72506V9.34506L16.3334 10.0217C17.78 10.8617 18.6667 12.4017 18.6667 14.0584C18.6667 16.6367 16.5784 18.7251 14 18.7251C11.4217 18.7251 9.33335 16.6367 9.33335 14.0584C9.33335 12.4017 10.2317 10.8617 11.6667 10.0217L12.8334 9.34506V4.72506H15.1667ZM4.66669 12.8334H1.16669V15.1667H4.66669V12.8334ZM4.14169 22.2717L5.78669 23.9167L7.87502 21.8167L6.23002 20.1717L4.14169 22.2717ZM15.1667 23.3334V26.8334H12.8334V23.3334H15.1667ZM23.3334 12.8334H26.8334V15.1667H23.3334V12.8334ZM22.2017 23.9284L20.1134 21.8284L21.7467 20.1951L23.8467 22.2834L22.2017 23.9284Z" fill="white"/>
</g>
</svg>
