<svg width="28" height="28" viewBox="0 0 28 28" fill="none" xmlns="http://www.w3.org/2000/svg">
<g id="lock_open-24px copy 3">
<path id="Shape" fill-rule="evenodd" clip-rule="evenodd" d="M21 9.33329H19.8334V6.99996C19.8334 3.77996 17.22 1.16663 14 1.16663C10.78 1.16663 8.16669 3.77996 8.16669 6.99996H10.3834C10.3834 5.00496 12.005 3.38329 14 3.38329C15.995 3.38329 17.6167 5.00496 17.6167 6.99996V9.33329H7.00002C5.71669 9.33329 4.66669 10.3833 4.66669 11.6666V23.3333C4.66669 24.6166 5.71669 25.6666 7.00002 25.6666H21C22.2834 25.6666 23.3334 24.6166 23.3334 23.3333V11.6666C23.3334 10.3833 22.2834 9.33329 21 9.33329ZM14 19.8333C15.2834 19.8333 16.3334 18.7833 16.3334 17.5C16.3334 16.2166 15.2834 15.1666 14 15.1666C12.7167 15.1666 11.6667 16.2166 11.6667 17.5C11.6667 18.7833 12.7167 19.8333 14 19.8333ZM7.00002 23.3333H21V11.6666H7.00002V23.3333Z" fill="white"/>
</g>
</svg>
