<svg width="28" height="28" viewBox="0 0 28 28" fill="none" xmlns="http://www.w3.org/2000/svg">
<g id="money-24px">
<path id="Shape" fill-rule="evenodd" clip-rule="evenodd" d="M2.33331 4.66663V23.3333H25.6666V4.66663H2.33331ZM8.16665 9.33329H5.83331V18.6666H8.16665V9.33329ZM14 18.6666H10.5C9.85831 18.6666 9.33331 18.1416 9.33331 17.5V10.5C9.33331 9.85829 9.85831 9.33329 10.5 9.33329H14C14.6416 9.33329 15.1666 9.85829 15.1666 10.5V17.5C15.1666 18.1416 14.6416 18.6666 14 18.6666ZM17.5 18.6666H21C21.6416 18.6666 22.1666 18.1416 22.1666 17.5V10.5C22.1666 9.85829 21.6416 9.33329 21 9.33329H17.5C16.8583 9.33329 16.3333 9.85829 16.3333 10.5V17.5C16.3333 18.1416 16.8583 18.6666 17.5 18.6666ZM18.6666 11.6666H19.8333V16.3333H18.6666V11.6666ZM11.6666 11.6666H12.8333V16.3333H11.6666V11.6666ZM4.66665 21H23.3333V6.99996H4.66665V21Z" fill="white"/>
</g>
</svg>
