<svg width="28" height="28" viewBox="0 0 28 28" fill="none" xmlns="http://www.w3.org/2000/svg">
<g opacity="0.8">
<path fill-rule="evenodd" clip-rule="evenodd" d="M24.325 5.27333L25.55 10.3717C25.8417 11.5617 25.5733 12.7867 24.8267 13.7433C24.7641 13.8216 24.6858 13.8945 24.6093 13.9658L24.6093 13.9658L24.6092 13.9658C24.5717 14.0008 24.5346 14.0354 24.5 14.07V22.1667C24.5 23.45 23.45 24.5 22.1667 24.5H5.83334C4.55001 24.5 3.50001 23.45 3.50001 22.1667V14.07C3.45801 14.0233 3.41227 13.9804 3.36654 13.9375C3.29794 13.8731 3.22934 13.8087 3.17334 13.7317C2.42667 12.775 2.17001 11.5617 2.45001 10.3717L3.67501 5.27333C3.92001 4.235 4.84167 3.5 5.89167 3.5H22.0967C23.1583 3.5 24.0683 4.22333 24.325 5.27333ZM23.2867 10.92L22.0617 5.82167L19.81 5.83333L20.4867 11.5033C20.5683 12.2617 21.1867 12.8333 21.8983 12.8333C22.4817 12.8333 22.8317 12.495 22.995 12.285C23.2983 11.9 23.4033 11.41 23.2867 10.92ZM15.1667 5.83333H17.4533L18.0833 11.1067C18.1417 11.5617 18.0017 12.0167 17.6983 12.355C17.4417 12.6583 17.0683 12.8333 16.59 12.8333C15.8083 12.8333 15.1667 12.145 15.1667 11.305V5.83333ZM10.5467 5.83333L9.90501 11.1067C9.85834 11.5617 9.99834 12.0167 10.29 12.355C10.57 12.6583 10.9317 12.8333 11.3283 12.8333C12.1917 12.8333 12.8333 12.145 12.8333 11.305V5.83333H10.5467ZM4.71334 10.92L5.89167 5.83333H8.19001L7.51334 11.5033C7.42001 12.2617 6.81334 12.8333 6.10167 12.8333C5.53001 12.8333 5.16834 12.495 5.01667 12.285C4.70167 11.9117 4.59667 11.41 4.71334 10.92ZM5.83334 15.1317V22.1667H22.1783V15.1317C22.1456 15.1358 22.1143 15.1413 22.0834 15.1467C22.0263 15.1568 21.9706 15.1667 21.91 15.1667C20.895 15.1667 19.9733 14.7467 19.2967 14.0583C18.5967 14.7583 17.6633 15.1667 16.6833 15.1667C15.6333 15.1667 14.7 14.7467 14.0117 14.0817C13.335 14.7467 12.425 15.1667 11.41 15.1667C10.3483 15.1667 9.41501 14.7583 8.71501 14.0583C8.03834 14.7467 7.11667 15.1667 6.10167 15.1667C6.04109 15.1667 5.98542 15.1568 5.92829 15.1467C5.89741 15.1413 5.86609 15.1358 5.83334 15.1317Z" fill="white"/>
</g>
</svg>
