<svg width="94" height="55" viewBox="0 0 94 55" fill="none" xmlns="http://www.w3.org/2000/svg">
<g id="Group 3">
<path id="Combined Shape" fill-rule="evenodd" clip-rule="evenodd" d="M18.9987 29.7102C18.9987 29.0453 19.6987 28.6071 20.3011 28.8887C22.1817 29.768 25.5869 31.263 26.9987 31.263H46.9987H66.9987C68.4106 31.263 71.8157 29.768 73.6964 28.8887C74.2987 28.6071 74.9987 29.0453 74.9987 29.7102C74.9987 30.049 74.8103 30.3571 74.5052 30.5045C73.0294 31.2173 68.6503 33.263 66.9987 33.263H26.9987C25.3472 33.263 20.968 31.2173 19.4922 30.5045C19.1872 30.3571 18.9987 30.049 18.9987 29.7102ZM32.9987 36.763C32.9987 38.1437 31.8794 39.263 30.4987 39.263C29.118 39.263 27.9987 38.1437 27.9987 36.763C27.9987 35.3823 29.118 34.263 30.4987 34.263C31.8794 34.263 32.9987 35.3823 32.9987 36.763ZM64.4987 39.263C65.8794 39.263 66.9987 38.1437 66.9987 36.763C66.9987 35.3823 65.8794 34.263 64.4987 34.263C63.118 34.263 61.9987 35.3823 61.9987 36.763C61.9987 38.1437 63.118 39.263 64.4987 39.263Z" fill="white"/>
</g>
</svg>
