<svg width="94" height="55" viewBox="0 0 94 55" fill="none" xmlns="http://www.w3.org/2000/svg">
<g id="Group 2">
<path id="Combined Shape" fill-rule="evenodd" clip-rule="evenodd" d="M20.7696 37.5261C20.4886 36.9235 20.9378 36.2305 21.6027 36.2312C23.6788 36.2333 27.3967 36.1491 28.6763 35.5524L53.1466 24.1417L53.993 25.9538L29.5215 37.365C28.0247 38.063 23.1913 38.0597 21.5525 38.0373C21.2138 38.0327 20.9128 37.8331 20.7696 37.5261ZM74.3109 29.8039C74.9732 29.7453 75.4812 30.3965 75.2538 31.0213C75.1379 31.3396 74.8554 31.5647 74.5184 31.5988C72.8877 31.7639 68.073 32.1885 66.5211 31.6236L54.3039 27.1769L54.9891 25.298L67.2051 29.7443C68.5318 30.2271 72.2429 29.9869 74.3109 29.8039ZM61.18 36.0647C59.8826 35.5925 59.2136 34.1579 59.6859 32.8605C60.1581 31.563 61.5927 30.894 62.8901 31.3663C64.1876 31.8385 64.8566 33.2731 64.3843 34.5706C63.9121 35.868 62.4775 36.537 61.18 36.0647ZM35.2293 41.3237C36.4807 40.7402 37.0221 39.2528 36.4385 38.0014C35.855 36.7501 34.3676 36.2087 33.1162 36.7922C31.8649 37.3757 31.3235 38.8631 31.907 40.1145C32.4905 41.3658 33.978 41.9072 35.2293 41.3237Z" fill="white"/>
</g>
</svg>
