<svg width="94" height="55" viewBox="0 0 94 55" fill="none" xmlns="http://www.w3.org/2000/svg">
<g id="Group 4">
<path id="Combined Shape" fill-rule="evenodd" clip-rule="evenodd" d="M25.5 20C26.8807 20 28 18.8807 28 17.5C28 16.1193 26.8807 15 25.5 15C24.1193 15 23 16.1193 23 17.5C23 18.8807 24.1193 20 25.5 20ZM37.3023 15.6257C36.7 15.3441 36 15.7823 36 16.4472C36 16.786 36.1884 17.0941 36.4935 17.2415C37.9693 17.9543 42.3485 20 44 20H71.0013L71 18H44C42.5882 18 39.183 16.505 37.3023 15.6257Z" fill="white"/>
<path id="Combined Shape_2" fill-rule="evenodd" clip-rule="evenodd" d="M25.5 34C26.8807 34 28 32.8807 28 31.5C28 30.1193 26.8807 29 25.5 29C24.1193 29 23 30.1193 23 31.5C23 32.8807 24.1193 34 25.5 34ZM37.3023 29.6257C36.7 29.3441 36 29.7823 36 30.4472C36 30.786 36.1884 31.0941 36.4935 31.2415C37.9693 31.9543 42.3485 34 44 34H71.0013L71 32H44C42.5882 32 39.183 30.505 37.3023 29.6257Z" fill="white"/>
<path id="Combined Shape_3" fill-rule="evenodd" clip-rule="evenodd" d="M25.5 48C26.8807 48 28 46.8807 28 45.5C28 44.1193 26.8807 43 25.5 43C24.1193 43 23 44.1193 23 45.5C23 46.8807 24.1193 48 25.5 48ZM37.3023 43.6257C36.7 43.3441 36 43.7823 36 44.4472C36 44.786 36.1884 45.0941 36.4935 45.2415C37.9693 45.9543 42.3485 48 44 48H71.0013L71 46H44C42.5882 46 39.183 44.505 37.3023 43.6257Z" fill="white"/>
</g>
</svg>
