<svg width="94" height="55" viewBox="0 0 94 55" fill="none" xmlns="http://www.w3.org/2000/svg">
<g id="Group">
<path id="Combined Shape" fill-rule="evenodd" clip-rule="evenodd" d="M20.7236 45.2532C20.3911 44.6774 20.7783 43.9479 21.4407 43.8907C23.509 43.7118 27.2055 43.3039 28.4282 42.598L45.7487 32.598L63.0692 22.598C64.2919 21.8921 66.4934 18.8948 67.6824 17.193C68.0632 16.648 68.8886 16.6774 69.221 17.2532C69.3904 17.5466 69.3813 17.9077 69.1907 18.1878C68.2691 19.5431 65.4995 23.5043 64.0692 24.33L29.4282 44.33C27.9979 45.1558 23.1826 45.5738 21.5481 45.6943C21.2102 45.7193 20.893 45.5466 20.7236 45.2532ZM36.3743 44.3611C37.0647 45.5569 36.655 47.0858 35.4593 47.7762C34.2635 48.4666 32.7346 48.0569 32.0442 46.8611C31.3538 45.6654 31.7635 44.1364 32.9593 43.4461C34.155 42.7557 35.684 43.1654 36.3743 44.3611ZM64.9041 30.7762C66.0999 30.0858 66.5096 28.5569 65.8192 27.3611C65.1288 26.1654 63.5999 25.7557 62.4041 26.4461C61.2084 27.1364 60.7987 28.6654 61.4891 29.8611C62.1794 31.0569 63.7084 31.4666 64.9041 30.7762Z" fill="white"/>
</g>
</svg>
